<svg xmlns="http://www.w3.org/2000/svg" viewBox="0 0 28.06 21.7"><defs><style>.cls-1{fill:#fff;}</style></defs><title>landscape</title><g id="Layer_2" data-name="Layer 2"><g id="Layer_1-2" data-name="Layer 1"><path class="cls-1" d="M14,21.7H1.48a2.86,2.86,0,0,1-.51,0,1.13,1.13,0,0,1-1-1.25c0-1.89,0-3.78,0-5.67q0-4.19,0-8.38Q0,3.81,0,1.25A1.13,1.13,0,0,1,1.26,0L5,0l5.47,0H26.82a1.12,1.12,0,0,1,1.23,1.24q0,5.74,0,11.48c0,2.54,0,5.08,0,7.63a1.18,1.18,0,0,1-1.34,1.35ZM25.77,2.29H2.31V19.4h8.51V18.07H9.76c-.58,0-.74-.15-.74-.72q0-2.89,0-5.78A2.21,2.21,0,0,1,11.3,9.28h6.06a2.24,2.24,0,0,1,2.37,2.36q0,2.85,0,5.7c0,.56-.17.73-.74.73H17.91v1.31h.32l5.51,0c.54,0,1.08,0,1.62,0s.43,0,.43-.39c0-.92,0-1.85,0-2.77q0-4.42,0-8.83,0-2.4,0-4.79C25.77,2.52,25.77,2.43,25.77,2.29Z"/><path class="cls-1" d="M11.79,6.13a2.61,2.61,0,1,1,2.59,2.62A2.6,2.6,0,0,1,11.79,6.13Z"/></g></g></svg>