<svg xmlns="http://www.w3.org/2000/svg" viewBox="0 0 21.71 28.07"><defs><style>.cls-1{fill:#fff;}</style></defs><title>potrait</title><g id="Layer_2" data-name="Layer 2"><g id="Layer_1-2" data-name="Layer 1"><path class="cls-1" d="M0,14Q0,7.7,0,1.37A1.19,1.19,0,0,1,1.36,0h19a1.17,1.17,0,0,1,1.32,1.31c0,1.72,0,3.43,0,5.15,0,2.59,0,5.18,0,7.78s0,5.14,0,7.72c0,1.35,0,2.7,0,4.06,0,.25,0,.5,0,.75a1.16,1.16,0,0,1-1.31,1.3h-19a1.19,1.19,0,0,1-1.09-.51A1.61,1.61,0,0,1,0,26.75c0-2.09,0-4.18,0-6.27S0,16.18,0,14ZM19.41,2.32H2.26c0,1,0,2,0,3,0,1.19,0,2.37,0,3.56q0,6.44,0,12.87,0,1.85,0,3.71c0,.29.09.41.38.38s.42,0,.63,0H6.92l.35,0c0-.09,0-.14,0-.19,0-1.56,0-3.11,0-4.67,0-.19-.09-.22-.24-.21l-1,0a.57.57,0,0,1-.65-.65c0-2,0-4,0-6a2.31,2.31,0,0,1,.16-.85,2.21,2.21,0,0,1,2.23-1.43H14a2.26,2.26,0,0,1,2.32,2.32c0,2,0,3.92,0,5.88,0,.53-.19.73-.72.73H14.46v5h5Z"/><path class="cls-1" d="M13.51,8.29a2.63,2.63,0,1,1-2.59-2.61A2.61,2.61,0,0,1,13.51,8.29Z"/></g></g></svg>